# xmcd CD database file
#
# Track frame offsets:
#	150
#	13893
#	36660
#	55333
#	80301
#	108134
#	129752
#	154367
#	170413
#	190928
#	209526
#
# Disc length: 2942 seconds
#
# Revision: 0
# Processed by: cddbd v1.5.1PL0 Copyright (c) Steve Scherf et al.
# Submitted via: CDex 1.51
#
DISCID=930b7c0b
DTITLE=チ・ブルグット - 藍
DYEAR=1900
DGENRE=Misc
TTITLE0=夜明け
TTITLE1=藍色の子守唄
TTITLE2=はばの里
TTITLE3=雪に立つ馬
TTITLE4=Hemell ヒメル
TTITLE5=スーホーの白い馬
TTITLE6=蜃気楼
TTITLE7=モンスーン
TTITLE8=蒼い白
TTITLE9=紅霞（こうき）
TTITLE10=天上の風（モンゴル民謡）
EXTD=
EXTT0=
EXTT1=
EXTT2=
EXTT3=
EXTT4=
EXTT5=
EXTT6=
EXTT7=
EXTT8=
EXTT9=
EXTT10=
PLAYORDER=
